<svg width="128" height="23" viewBox="0 0 128 23" fill="none" xmlns="http://www.w3.org/2000/svg">
<g clip-path="url(#clip0_301_1790)">
<path d="M2.24725 18.4523C2.4353 18.4054 2.62336 18.4523 2.71738 18.5932C2.95245 18.9688 3.28154 19.2975 3.65765 19.5322C4.1748 19.8139 4.73896 20.0018 5.35013 20.0018C5.82027 20.0018 6.24339 19.9078 6.66651 19.6731C7.08963 19.4383 7.46573 19.1566 7.7008 18.8279C7.88886 18.5932 8.0299 18.3115 8.12392 17.9358C8.21795 17.5602 8.26496 17.0907 8.26496 16.4334V1.87811C8.26496 1.6903 8.45302 1.5025 8.64107 1.5025H10.8977C11.0858 1.5025 11.2738 1.6903 11.2738 1.87811V16.2456C11.2738 17.0907 11.2268 17.795 11.0858 18.3584C10.9447 18.9218 10.8037 19.3914 10.5216 19.8139C10.0045 20.706 9.29926 21.4573 8.35899 22.0207C7.41872 22.5841 6.43144 22.8659 5.30312 22.8659C4.08077 22.8659 2.95245 22.5841 2.01218 21.9738C1.11893 21.4103 0.507753 20.706 0.0376196 19.8139C-0.0564072 19.6261 0.0376196 19.3914 0.225673 19.2975L2.24725 18.4523ZM14.7998 12.0198C14.7998 10.5174 15.0819 9.06184 15.5991 7.74717C16.1632 6.4325 16.8684 5.30564 17.8087 4.31964C18.749 3.33364 19.8773 2.5824 21.1466 2.01897C22.416 1.45554 23.8264 1.17383 25.2838 1.17383C26.7412 1.17383 28.1516 1.45554 29.421 2.01897C30.6904 2.5824 31.8187 3.33364 32.7589 4.31964C33.6992 5.25869 34.4514 6.4325 34.9686 7.74717C35.5327 9.06184 35.7678 10.4704 35.7678 12.0198C35.7678 13.5693 35.4857 14.9778 34.9686 16.3395C34.4044 17.6541 33.6992 18.781 32.7589 19.767C31.8187 20.706 30.6904 21.5042 29.421 22.0677C28.1516 22.6311 26.7412 22.8659 25.2838 22.8659C23.8264 22.8659 22.416 22.5841 21.1466 22.0677C19.8773 21.5042 18.749 20.753 17.8087 19.767C16.8684 18.781 16.1162 17.6541 15.5991 16.3395C15.0349 14.9778 14.7998 13.5693 14.7998 12.0198ZM17.8087 12.0198C17.8087 13.1467 17.9967 14.2266 18.3728 15.2126C18.749 16.1517 19.2661 16.9968 19.9243 17.748C20.6295 18.4523 21.3817 19.0158 22.322 19.3914C23.2622 19.8139 24.2495 20.0018 25.3308 20.0018C26.4121 20.0018 27.3994 19.8139 28.2927 19.3914C29.2329 18.9688 29.9851 18.4523 30.6903 17.748C31.3955 17.0437 31.9127 16.1986 32.2888 15.2126C32.6649 14.2266 32.853 13.1467 32.853 12.0198C32.853 10.893 32.6649 9.81308 32.2888 8.87403C31.9127 7.88803 31.3955 7.04288 30.6903 6.3386C30.0322 5.58736 29.2329 5.02393 28.2927 4.64831C27.3994 4.22574 26.4121 4.03793 25.3308 4.03793C24.2495 4.03793 23.2622 4.22574 22.322 4.64831C21.4287 5.07088 20.6295 5.58736 19.9243 6.3386C19.2661 7.04288 18.749 7.88803 18.3728 8.87403C17.9967 9.81308 17.8087 10.846 17.8087 12.0198ZM38.5416 12.0198C38.5416 10.5174 38.8237 9.06184 39.3408 7.74717C39.905 6.4325 40.6102 5.30564 41.5504 4.31964C42.4907 3.33364 43.619 2.5824 44.8884 2.01897C46.1578 1.45554 47.5682 1.17383 49.0256 1.17383C50.483 1.17383 51.8934 1.45554 53.1628 2.01897C54.4321 2.5824 55.5604 3.33364 56.5007 4.31964C57.441 5.25869 58.1932 6.4325 58.7103 7.74717C59.2745 9.06184 59.5096 10.4704 59.5096 12.0198C59.5096 13.3815 59.2745 14.6961 58.8514 15.9169C58.4282 17.1377 57.8171 18.2176 57.0178 19.1566L60.1207 22.5372H56.4067L54.9963 20.9878C54.15 21.5512 53.2098 22.0207 52.2225 22.3494C51.2352 22.678 50.1539 22.8189 49.0256 22.8189C47.5211 22.8189 46.1578 22.5372 44.8884 22.0207C43.619 21.4573 42.4907 20.706 41.5504 19.72C40.6102 18.734 39.858 17.6072 39.3408 16.2925C38.7767 14.9778 38.5416 13.5693 38.5416 12.0198ZM41.5504 12.0198C41.5504 13.1467 41.7385 14.2266 42.1146 15.2126C42.4907 16.1517 43.0079 16.9968 43.666 17.748C44.3712 18.4523 45.1235 19.0158 46.0637 19.3914C47.004 19.8139 47.9913 20.0018 49.0726 20.0018C49.8248 20.0018 50.53 19.9078 51.1882 19.72C51.8934 19.5322 52.5046 19.2505 53.0687 18.8749L47.9913 13.2406L50.1069 11.4564L55.0433 16.9498C55.5134 16.2925 55.8895 15.5413 56.1246 14.7431C56.4067 13.9449 56.5477 13.0528 56.5477 12.0668C56.5477 10.9399 56.3597 9.86003 55.9836 8.92098C55.6074 7.93498 55.0903 7.08983 54.3851 6.38555C53.7269 5.68126 52.9277 5.11783 51.9874 4.69526C51.0942 4.27269 50.1069 4.08488 49.0256 4.08488C47.9443 4.08488 46.957 4.27269 46.0167 4.69526C45.1235 5.11783 44.3242 5.63431 43.619 6.38555C42.9608 7.08983 42.4437 7.93498 42.0676 8.92098C41.7385 9.81308 41.5504 10.846 41.5504 12.0198ZM62.4714 12.0198C62.4714 10.5174 62.7535 9.06184 63.2706 7.74717C63.8348 6.4325 64.54 5.30564 65.4803 4.31964C66.4205 3.33364 67.5489 2.5824 68.8182 2.01897C70.0876 1.45554 71.498 1.17383 72.9554 1.17383C74.4128 1.17383 75.8232 1.45554 77.0926 2.01897C78.3619 2.5824 79.4902 3.33364 80.4305 4.31964C81.3708 5.25869 82.123 6.4325 82.6401 7.74717C83.2043 9.06184 83.4394 10.4704 83.4394 12.0198C83.4394 13.5693 83.1573 14.9778 82.6401 16.3395C82.076 17.6541 81.3708 18.781 80.4305 19.767C79.4902 20.706 78.3619 21.5042 77.0926 22.0677C75.8232 22.6311 74.4128 22.8659 72.9554 22.8659C71.498 22.8659 70.0876 22.5841 68.8182 22.0677C67.5489 21.5042 66.4205 20.753 65.4803 19.767C64.54 18.781 63.7878 17.6541 63.2706 16.3395C62.7065 14.9778 62.4714 13.5693 62.4714 12.0198ZM65.4803 12.0198C65.4803 13.1467 65.6683 14.2266 66.0444 15.2126C66.4205 16.1517 66.9377 16.9968 67.5959 17.748C68.3011 18.4523 69.0533 19.0158 69.9935 19.3914C70.9338 19.8139 71.9211 20.0018 73.0024 20.0018C74.0837 20.0018 75.071 19.8139 75.9642 19.3914C76.9045 18.9688 77.6567 18.4523 78.3619 17.748C79.0671 17.0437 79.5843 16.1986 79.9604 15.2126C80.3365 14.2266 80.5245 13.1467 80.5245 12.0198C80.5245 10.893 80.3365 9.81308 79.9604 8.87403C79.5843 7.88803 79.0671 7.04288 78.3619 6.3386C77.7037 5.63431 76.9045 5.07088 75.9642 4.64831C75.071 4.22574 74.0837 4.03793 73.0024 4.03793C71.9211 4.03793 70.9338 4.22574 69.9935 4.64831C69.1003 5.07088 68.3011 5.58736 67.5959 6.3386C66.9377 7.04288 66.4205 7.88803 66.0444 8.87403C65.6683 9.81308 65.4803 10.846 65.4803 12.0198ZM90.2563 12.6302V22.0207C90.2563 22.3024 90.0212 22.5372 89.7392 22.5372H87.8116C87.5295 22.5372 87.2945 22.3024 87.2945 22.0207V2.01897C87.2945 1.73726 87.5295 1.5025 87.8116 1.5025H94.6756C95.6158 1.5025 96.4621 1.5964 97.0733 1.83116C97.7314 2.01897 98.2956 2.34764 98.7657 2.72326C99.4239 3.23974 99.8941 3.89707 100.27 4.60136C100.646 5.35259 100.834 6.15079 100.834 7.04288C100.834 7.93498 100.646 8.73317 100.27 9.48441C99.8941 10.2356 99.4239 10.846 98.7657 11.3625C98.4366 11.6442 98.0605 11.879 97.6374 12.0668C97.2613 12.2546 96.7912 12.3955 96.274 12.4894L103.232 21.692C103.514 22.0677 103.232 22.5372 102.809 22.5372H100.552C100.364 22.5372 100.223 22.4433 100.129 22.3024L92.701 12.6302H90.2563ZM94.4875 9.81308C95.1927 9.81308 95.7099 9.71917 96.086 9.57831C96.4621 9.43746 96.7912 9.24965 97.0262 9.01488C97.5434 8.49841 97.8255 7.84107 97.8255 7.08983C97.8255 6.71421 97.7785 6.3386 97.6374 6.05688C97.4964 5.72821 97.3083 5.4465 97.0733 5.16478C96.8382 4.93002 96.5091 4.74221 96.133 4.60136C95.7569 4.4605 95.2397 4.41355 94.5345 4.41355H90.3033V9.81308H94.4875ZM118.605 17.1377H109.72L107.651 22.2085C107.557 22.3963 107.369 22.5372 107.134 22.5372H105.16C104.783 22.5372 104.501 22.1616 104.642 21.7859L112.964 1.83116C113.058 1.64335 113.246 1.5025 113.434 1.5025H114.844C115.079 1.5025 115.267 1.64335 115.314 1.83116L123.636 21.8329C123.777 22.1616 123.542 22.5841 123.166 22.5841H121.144C120.909 22.5841 120.721 22.4433 120.674 22.2555L118.605 17.1377ZM110.942 14.2736H117.43L114.186 6.4325L110.942 14.2736Z" fill="#000111"/>
<path d="M121.52 3.14581C121.52 2.72324 121.614 2.30067 121.755 1.92505C121.943 1.54943 122.131 1.22076 122.414 0.892096C122.696 0.610382 123.025 0.375619 123.448 0.234762C123.871 0.0939049 124.247 0 124.67 0C125.093 0 125.516 0.0939049 125.893 0.234762C126.269 0.422572 126.598 0.610382 126.927 0.892096C127.209 1.17381 127.444 1.50248 127.585 1.92505C127.773 2.30067 127.82 2.72324 127.82 3.14581C127.82 3.56838 127.726 3.99096 127.585 4.36658C127.397 4.7422 127.209 5.07086 126.927 5.39953C126.645 5.68124 126.316 5.91601 125.893 6.05686C125.516 6.24467 125.093 6.29163 124.67 6.29163C124.247 6.29163 123.824 6.19772 123.448 6.05686C123.072 5.86905 122.743 5.68124 122.414 5.39953C122.131 5.11782 121.896 4.78915 121.755 4.36658C121.614 3.99096 121.52 3.56838 121.52 3.14581ZM122.084 3.14581C122.084 3.52143 122.131 3.8501 122.272 4.13181C122.414 4.46048 122.602 4.69524 122.837 4.93001C123.072 5.16477 123.354 5.35258 123.636 5.49343C123.965 5.63429 124.294 5.68124 124.623 5.68124C124.952 5.68124 125.328 5.63429 125.61 5.49343C125.94 5.35258 126.222 5.16477 126.41 4.93001C126.645 4.69524 126.833 4.41353 126.974 4.13181C127.115 3.80315 127.162 3.47448 127.162 3.14581C127.162 2.77019 127.115 2.44153 126.974 2.15981C126.833 1.83114 126.645 1.54943 126.41 1.36162C126.175 1.12686 125.893 0.939049 125.61 0.798191C125.281 0.657334 124.952 0.610382 124.623 0.610382C124.294 0.610382 123.918 0.657334 123.636 0.798191C123.307 0.939049 123.072 1.12686 122.837 1.36162C122.602 1.59638 122.414 1.8781 122.272 2.15981C122.178 2.44153 122.084 2.77019 122.084 3.14581ZM125.845 2.34762C125.845 2.44153 125.845 2.53543 125.798 2.62934C125.751 2.72324 125.704 2.81715 125.657 2.91105C125.61 3.00496 125.516 3.05191 125.469 3.14581C125.375 3.19276 125.281 3.23972 125.187 3.28667L126.316 4.88305H125.563L124.482 3.33362H124.294V4.88305H123.636V1.36162H124.811C124.952 1.36162 125.093 1.36162 125.187 1.40857C125.281 1.45553 125.375 1.50248 125.469 1.54943C125.704 1.78419 125.845 2.01895 125.845 2.34762ZM124.294 2.67629H124.764C124.858 2.67629 124.952 2.67629 124.999 2.62934C125.046 2.62934 125.093 2.58238 125.14 2.53543C125.187 2.48848 125.234 2.39457 125.234 2.30067C125.234 2.20676 125.187 2.15981 125.14 2.06591C125.093 2.01895 125.046 2.01895 124.999 1.972C124.952 1.92505 124.858 1.92505 124.764 1.92505H124.294V2.67629Z" fill="#000111"/>
</g>
<defs>
<clipPath id="clip0_301_1790">
<rect width="127.82" height="22.8658" fill="white"/>
</clipPath>
</defs>
</svg>
